<svg width="12" height="12" viewBox="0 0 12 12" fill="none" xmlns="http://www.w3.org/2000/svg">
<path d="M0.893498 10.0458L0.363168 10.5762L1.42383 11.6368L1.95416 11.1065L0.893498 10.0458ZM11.3261 1.42389C11.3261 1.00968 10.9903 0.673893 10.5761 0.673893L3.82611 0.673893C3.41189 0.673893 3.07611 1.00968 3.07611 1.42389C3.07611 1.83811 3.41189 2.17389 3.82611 2.17389H9.82611V8.17389C9.82611 8.58811 10.1619 8.92389 10.5761 8.92389C10.9903 8.92389 11.3261 8.58811 11.3261 8.17389L11.3261 1.42389ZM1.95416 11.1065L11.1064 1.95422L10.0458 0.893563L0.893498 10.0458L1.95416 11.1065Z" fill="black"/>
</svg>
