<?xml version="1.0" encoding="UTF-8"?>
<svg xmlns="http://www.w3.org/2000/svg" version="1.1" viewBox="0 0 346.9 683">
  <!-- Generator: Adobe Illustrator 28.6.0, SVG Export Plug-In . SVG Version: 1.2.0 Build 709)  -->
  <g>
    <g id="Calque_2">
      <g id="Calque_1-2">
        <g>
          <path d="M205.4,25c-21.2,0-42.4,0-63.7,0-7.7,0-12.7,4.4-12.7,10.9,0,6.6,4.9,11,12.6,11,5.3,0,10.6,0,15.9,0h15.9c5.3,0,10.6,0,15.9,0,5.3,0,10.6,0,15.9,0,7.6,0,12.6-4.6,12.4-11.2-.1-6.4-5-10.8-12.4-10.8h0Z"/>
          <path d="M343.4,164.6c0,0-.1,0-.1-.1,0-3.6-.2-72.6-.2-107.4,0-29-16.9-50-45.2-56.3h0C295.7.4,292.2,0,290,0H59c-6.3,0-12.5,1.1-18.4,3.1h0C18.8,10.9,4.1,31.3,4,54.5c-.1,26.9,0,53.8,0,80.7v6.5c0,0,0,.2-.2.2H.2c0,0-.2,0-.2.1v53.6c0,0,0,.2.2.2,1.4,0,1.8,0,3.5,0s.2,0,.2.2c0,1.8,0,18.7,0,20.6s0,.2-.2.2c-1.5,0-2.1,0-3.4,0s-.2,0-.2.2c0,3.3,0,50.5,0,53.6s0,.2.2.2c1.3,0,2,0,3.7,0s.2,0,.2.2v7c0,115.8,0,231.7,0,347.5s23.4,57.8,57.5,57.8h224.4c33.5,0,57.2-23.6,57.2-57.1,0-123.8-.2-372.3,0-379.4s0-.2.2-.2h3.5c0,0,.2,0,.2-.2v-81.4c0,0,0-.2-.2-.2h-3.3ZM329.1,625.3c0,25.6-18,43.7-43.5,43.7-74.8,0-149.6,0-224.3,0-25.2,0-43.2-18.2-43.2-43.5,0-94.8,0-189.7,0-284.5V58.4c0-26.7,17.7-44.5,44.3-44.5h222.8c26.2,0,44,17.9,44,44.2v567.1h0Z"/>
        </g>
      </g>
    </g>
  </g>
</svg>