<?xml version="1.0" encoding="UTF-8"?>
<svg id="Calque_2" xmlns="http://www.w3.org/2000/svg" viewBox="0 0 346.84 683">
  <g id="Calque_1-2">
    <g>
      <path d="M205.43,24.98c-21.23-.04-42.45-.03-63.68,0-7.7.01-12.68,4.35-12.69,10.93-.01,6.61,4.95,10.99,12.6,11.02,5.31.02,10.61.02,15.92.02h15.92c5.31,0,10.61,0,15.92,0,5.31,0,10.61,0,15.92-.02,7.57-.03,12.58-4.59,12.44-11.18-.14-6.42-5.02-10.75-12.35-10.77h0Z"/>
      <path d="M343.38,164.64c-.08,0-.14-.05-.14-.13,0-3.55-.22-72.59-.23-107.36,0-29.01-16.88-50.01-45.2-56.28h0C295.69.39,292.18,0,290.01,0H58.99c-6.27,0-12.49,1.06-18.4,3.14l-.08.03C18.77,10.87,4.11,31.35,4.02,54.49c-.11,26.89-.03,53.78-.03,80.67v6.5c0,.09-.07.16-.16.16l-3.66-.03c-.09,0-.16.07-.16.16v53.59c0,.09.08.16.17.16,1.37,0,1.77.04,3.48.04.09,0,.17.07.17.16,0,1.83,0,18.67,0,20.59,0,.1-.09.18-.19.18-1.55,0-2.12,0-3.44,0-.1,0-.19.08-.19.18,0,3.26,0,50.47,0,53.58,0,.09.08.16.17.16,1.29,0,1.99.03,3.65.03.09,0,.17.07.17.16v6.97c0,115.83,0,231.66,0,347.49,0,34.26,23.38,57.75,57.49,57.75h224.35c33.5,0,57.18-23.62,57.18-57.06,0-123.79-.17-372.3-.03-379.41,0-.09.07-.15.16-.15h3.53c.09,0,.16-.07.16-.16v-81.42c0-.09-.07-.16-.16-.16h-3.3ZM329.05,625.31c0,25.62-17.99,43.7-43.53,43.7-74.78.02-149.55.02-224.33,0-25.18,0-43.24-18.15-43.24-43.48-.02-94.85,0-189.7,0-284.55V58.43c0-26.68,17.69-44.45,44.28-44.46h222.83c26.19,0,43.99,17.9,44,44.24v567.1h-.01Z"/>
    </g>
  </g>
</svg>