<?xml version="1.0" encoding="UTF-8"?>
<svg id="Calque_2" data-name="Calque 2" xmlns="http://www.w3.org/2000/svg" viewBox="0 0 962 532.13">
  <defs>
    <style>
      .cls-1 {
        fill: #000;
        stroke-width: 0px;
      }
    </style>
  </defs>
  <g id="Calque_1-2" data-name="Calque 1">
    <path class="cls-1" d="M105.89,0c250.07,0,500.15,0,750.22,0,19.89,8.22,24.48,15.17,24.48,37.05v441.11h81.41v12.5c0,6.32,0,12.64,0,18.96-.02,14.51-7.96,22.37-22.61,22.37-305,0-610-.03-915.01.13-12.27,0-20.42-4.42-24.38-16.1v-37.93h81.41c0-3.26,0-5.75,0-8.23,0-145.62.03-291.24-.06-436.86,0-11.2,3.21-20.72,12.56-27.27C97.49,3.24,101.88,1.88,105.89,0ZM528.45,13.97c0,3.76-.05,6.75.01,9.73.09,4.13-1.92,6.22-6.01,6.22-27.3.02-54.61,0-81.91.02-4.21,0-6.01-2.23-5.99-6.24,0-3.11,0-6.22,0-9.73-2.33,0-4.13,0-5.92,0-103.39,0-206.78,0-310.16,0-15.32,0-23.06,7.66-23.06,22.93-.01,145.05,0,290.11,0,435.16,0,1.91.16,3.82.25,5.73h770.94c0-1.94,0-3.57,0-5.21,0-145.39,0-290.77-.01-436.16,0-14.61-7.93-22.45-22.55-22.45-103.39,0-206.78,0-310.16,0h-5.42ZM408.58,480.28c0,2.33,0,4.14,0,5.95,0,10.95,2.89,13.83,13.91,13.83,21.78,0,43.55,0,65.33,0,18.12,0,36.24.02,54.36-.01,5.94-.01,10.3-2.98,10.95-8.03.5-3.84.1-7.79.1-11.74h-144.65Z"/>
  </g>
</svg>