<?xml version="1.0" encoding="UTF-8"?>
<svg id="Calque_1" data-name="Calque 1" xmlns="http://www.w3.org/2000/svg" xmlns:xlink="http://www.w3.org/1999/xlink" version="1.1" viewBox="0 0 396 234">
  <defs>
    <style>
      .cls-1 {
        clip-path: url(#clippath);
      }

      .cls-2 {
        fill: none;
      }

      .cls-2, .cls-3 {
        stroke-width: 0px;
      }

      .cls-3 {
        fill: #000;
      }
    </style>
    <clipPath id="clippath">
      <rect class="cls-2" x=".5" y=".5" width="395" height="233"/>
    </clipPath>
  </defs>
  <g class="cls-1">
    <g>
      <path class="cls-3" d="M124.2,179.1c-133.2,43.8-92.1,0-92.1,0l-14.9.2s-21.5,15.7-15.8,22.9c17.1,19.8,136.4-23,136.4-23,0,0-12,.3-13.5,0h-.1ZM372.8,46.2c-2.2-5.9-21.8-5.6-41.5-2.6-21.1,3.3-42.2,9.6-42.2,9.6,0,0,1.8,2.9,2.9,4.4,2.4-.8,44.6-13.3,52.1,1.2,5.6,12.5-30.6,34.6-30.6,34.6l-.7,4.1h4.4s60.8-35.6,55.5-51.4h.1Z"/>
      <path class="cls-3" d="M249.9,41.6L209.9,4.9l56.2,19.6-16.2,17.1h0ZM169.2,36.5L205.8,4.4l40.5,37.5-77.1-5.5h0ZM165.8,35.8l-24.8-19.6,61.5-12.3-36.7,31.9ZM100.9,62.1l37.6-44.5,25.5,19.8-63,24.7h-.1ZM105.1,46.1l22.7-19.6-28.5,33.6,5.8-14ZM294.1,65.7h3.3l-28.2-42.8L205.5.6l-67.7,13.3-34.7,30.9-9.4,21.2h4.2l65.3-25.4-10.8,25.4h2.8l11.1-26.1,19.6,26h3.2l-20.7-26.9,79.3,5.6-17.9,21.2h3.3l16.4-19.2,5.9,19.1h2.5l-5.7-19.1,28.2,19.1h4.8l-33-22.2,16.2-17.4,25.8,39.6h-.1Z"/>
      <path class="cls-3" d="M331.1,140.9c-.5,2.9-2.4,4-5.5,4h-4.6l1.4-8h4.6c3.1,0,4.7,1.1,4.1,4.1h0ZM395.4,138.3c2.3-13.1-8.5-17.1-18.8-17.1s-22.2.9-26.5,14.3c-.3-8.7-6.5-13-18.7-13h-25.4l-8.8,49.8h19l2.3-13.3h4.1l4.1,13.3h20.4l-6.2-17.1c4.2-2.7,6.9-6.8,8.3-12.4,1,5.2,6.5,7.7,15.6,10.4,5.3,1.6,8.3,2,7.9,4.3-.4,2.3-1.7,2.4-4.3,2.4s-5.4-1.1-4.8-4.4h-17.9c-1.4,8,3.3,18.1,22.1,18.1s23.5-3.1,26-17.3c2.1-12.2-9.8-13.4-14.4-14.6s-9.6-2.2-9.2-4.7c.3-1.9,1.9-2.7,4.1-2.7s4,1.4,3.6,3.9h17.6-.1ZM281.2,147.5c-.8,4.6-5.2,8.4-9.7,8.4s-7.5-3.8-6.7-8.4,4.7-8.4,9.7-8.4,7.5,3.8,6.7,8.4ZM277.7,121.3c-12,0-22.3,5.8-28.1,14.7l2.4-13.3h-49.8l-3,16.9h15.4l-5.8,32.8h18.9l5.8-32.8h14.1c-1.2,2.5-2,5.1-2.5,8-2.7,15.2,6.8,26.2,23.4,26.2s30-11,32.7-26.2c2.7-15.2-6.8-26.2-23.4-26.2h-.1ZM174.3,149.6l4.1-10.1h2l.6,10.1h-6.7ZM168.3,122.6l-23.7,49.8h20.4l3.2-7.9h13.5l.5,7.9h20.4l-6.2-49.8h-28.1,0ZM86.6,140.9c-.5,2.9-2.4,4-5.5,4h-4.6l1.4-8h4.6c3.1,0,4.7,1.1,4.1,4.1h0ZM123.7,157.5l.6-3.2h20.9l2.4-13.5h-20.9l.6-3.2h22.9l2.6-14.9h-41.9l-8.6,48.9-5.8-16.2c4.7-3,7.6-7.7,8.7-14.4,2.2-12.2-3.8-18.3-18.3-18.3h-25.4l-5,28.2h-19.6c-1.5,2.7-3.7,4.9-7.9,4.9s-7.3-3.6-6.4-8.3c.8-4.8,4.6-8.3,9.4-8.3s5.6,2.3,6.1,5h19c1.3-13.2-7.6-22.9-22.5-22.9s-30,11-32.7,26.2c-2.7,15.2,6.8,26.2,23.4,26.2s24.6-6.8,30.1-16.7l-2.7,15.3h19l2.3-13.3h4.1l4.1,13.3h61.8l2.6-14.9h-22.9Z"/>
      <path class="cls-3" d="M258.3,97l4.1-10.1h2l.6,10.1h-6.7ZM307.4,102.9l5.8-32.8h-18.9l-8.1,46.1-5.7-46.1h-28l-23.7,49.8h20.4l3.2-7.9h13.5l.5,7.9h63.8l3-16.9h-25.8ZM241.1,70h-18.9l-4.8,26.9c-.8,4.4-2.9,6.5-6.1,6.5s-4.6-2.1-3.8-6.5l4.8-26.9h-19l-4.8,26.9c-2.8,16.1,2.6,24.2,19.7,24.2s25.4-8.1,28.2-24.2l4.8-26.9h-.1ZM172.3,89.2c-4.6-1.1-9.6-2.2-9.2-4.7.3-1.9,1.9-2.7,4.1-2.7s4,1.4,3.6,3.9h17.6c2.3-13.1-8.5-17.1-18.8-17.1s-23.1.8-26,17.2c-1.4,8.2,3.1,11.5,14.3,14.8,5.3,1.6,8.3,2,7.9,4.3-.3,1.6-1.7,2.4-4.3,2.4s-5.4-1.1-4.8-4.4h-17.9c-1.4,8,3.3,18.1,22.1,18.1s23.5-3.1,26-17.3c2.1-12.2-9.8-13.4-14.4-14.6h-.2ZM125,70s-1.2,7.5-2.7,15.7l12.3,2.4s-13.1,2-13.2,2c-2.4,13.6-5.2,29.7-5.2,29.7h19l8.8-49.8h-19,0ZM102.5,70l-13.1,32.8h-1.3l-1.5-32.8h-21.5l6.9,49.8h27.4l24.4-49.8h-21.4.1Z"/>
      <path class="cls-3" d="M241,220.9l22.4-23.3,14.8-5.9-37.2,29.3h0ZM228.4,230.5l-29.9-6.7,60.8-25.5-30.9,32.3h0ZM165,230.9l28.8-5.7,24,5.6h-52.8ZM131.4,198.5l58.7,24.8-37,7.2-21.8-32h0ZM97.7,189.4l29.6,7.9,20.3,29.5-49.9-37.4ZM288.2,179.2l-2.4,6.3-19,8.2,10.5-14.5h-3.1l-9.7,13.2.9-13.2h-2.4l-1.4,14.7-34.6-14.6h-6.6l38.9,16.5-63,26.3,4.5-42.8h-2.4l-4.6,42.7-62.6-26.3,45.8-16.4h-7.1l-40.7,14.6-.2-14.5h-2.4v13.1l-10.7-13.1h-3.2l12.2,14.7-32.3-8.3-1.4-6.4h-3l1.9,8,61.7,46h77.5l58.4-46.1,3.2-8.1h-2.8.1Z"/>
    </g>
  </g>
</svg>