<svg width="396" height="234" viewBox="0 0 396 234" fill="none" xmlns="http://www.w3.org/2000/svg">
<g style="mix-blend-mode:difference" clip-path="url(#clip0_17_258)">
<path d="M124.533 179.062C-8.69809 222.879 32.3958 179.062 32.3958 179.062L17.5305 179.232C17.5305 179.232 -3.94804 194.923 1.68057 202.093C18.7828 221.874 138.031 179.062 138.031 179.062C138.031 179.062 125.995 179.323 124.533 179.062ZM373.143 46.1636C370.916 40.3041 351.306 40.5565 331.622 43.6046C310.562 46.8666 289.418 53.1582 289.418 53.1582C289.418 53.1582 291.189 56.0556 292.323 57.5938C294.75 56.792 336.908 44.3225 344.437 58.788C350.027 71.3173 313.852 93.4201 313.852 93.4201L313.169 97.5145H317.611C317.611 97.5145 378.399 61.9228 373.143 46.1636Z" fill="white"/>
<path d="M250.194 41.6148L210.211 4.93563L266.426 24.5547L250.194 41.6148ZM169.545 36.4968L206.11 4.42382L246.606 41.956L169.545 36.4968ZM166.128 35.8144L141.352 16.1953L202.864 3.91202L166.128 35.8144ZM101.199 62.0869L138.789 17.5601L164.248 37.3498L101.199 62.0869ZM105.47 46.0504L128.196 26.4313L99.661 60.0397L105.47 46.0504ZM294.399 65.6723L297.694 65.6695L269.502 22.8487L205.769 0.5L138.106 13.8069L103.42 44.6856L94.0225 65.8401L98.2293 65.8365L163.565 40.4206L152.723 65.7911L155.531 65.7889L166.64 39.7382L186.232 65.7626L189.383 65.7605L168.691 38.8852L247.972 44.515L230.022 65.7264L233.327 65.7235L249.681 46.5622L255.631 65.705L258.133 65.7029L252.415 46.5622L280.638 65.6837L285.413 65.6794L252.415 43.4914L268.647 26.0901L294.399 65.6723Z" fill="white"/>
<path d="M331.471 140.882C330.956 143.796 329.059 144.863 325.927 144.863H321.37L322.789 136.83H327.345C330.478 136.83 331.998 137.897 331.471 140.882ZM395.698 138.323C398.007 125.244 387.177 121.264 376.926 121.264C369.364 121.264 354.708 122.196 350.395 135.603C350.064 126.916 343.901 122.614 331.706 122.614H306.292L297.505 172.371H316.513L318.86 159.079H322.989L327.049 172.371H347.41L341.251 155.24C345.428 152.563 348.191 148.45 349.56 142.861C350.553 148.084 356.09 150.596 365.155 153.25C370.431 154.814 373.488 155.24 373.074 157.586C372.798 159.15 371.366 160.003 368.732 160.003C366.241 160.003 363.296 158.937 363.886 155.596H345.946C344.527 163.628 349.294 173.721 368.018 173.721C380.904 173.721 391.494 170.594 394.004 156.378C396.151 144.223 384.203 142.943 379.634 141.806C375.065 140.669 369.985 139.603 370.425 137.115C370.763 135.195 372.325 134.413 374.532 134.413C376.882 134.413 378.566 135.764 378.114 138.323H395.698ZM281.571 147.493C280.755 152.113 276.388 155.88 271.903 155.88C267.418 155.88 264.381 152.113 265.197 147.493C266.013 142.872 269.882 139.105 274.865 139.105C279.849 139.105 282.387 142.872 281.571 147.493ZM278.015 121.264C265.98 121.264 255.682 127.016 249.878 135.944L252.232 122.614H202.398L199.41 139.531H214.859L209.06 172.371H227.997L233.796 139.531H247.871C246.694 142.014 245.831 144.681 245.335 147.493C242.648 162.704 252.093 173.721 268.752 173.721C285.411 173.721 298.747 162.704 301.433 147.493C304.119 132.281 294.675 121.264 278.015 121.264ZM174.582 149.625L178.713 139.531H180.707L181.273 149.625H174.582ZM168.673 122.614L144.936 172.371H165.297L168.541 164.481H182.067L182.525 172.371H202.886L196.723 122.614H168.673ZM86.8837 140.882C86.3689 143.796 84.4723 144.863 81.3398 144.863H76.7834L78.2016 136.83H82.758C85.8905 136.83 87.4112 137.897 86.8837 140.882ZM123.991 157.444L124.557 154.245H145.416L147.801 140.74H126.942L127.506 137.541H150.43L153.066 122.614H111.135L102.504 171.484L96.6643 155.24C101.32 152.255 104.226 147.493 105.393 140.882C107.553 128.656 101.572 122.614 87.1193 122.614H61.7044L56.7158 150.861L37.0912 150.834C35.6175 153.534 33.3649 155.809 29.2357 155.809C24.4664 155.809 21.9611 152.255 22.8026 147.493C23.6434 142.73 27.4031 139.176 32.1731 139.176C36.3024 139.176 37.7519 141.451 38.2716 144.152H57.2797C58.6053 131.001 49.7175 121.264 34.7667 121.264C18.108 121.264 4.77197 132.281 2.08582 147.493C-0.600328 162.704 8.84426 173.721 25.503 173.721C37.9918 173.721 50.0535 166.945 55.623 157.049L52.9176 172.371H71.9258L74.2731 159.079H78.4023L82.4618 172.371H102.348H102.823H144.28L146.915 157.444H123.991Z" fill="white"/>
<path d="M258.619 97.0243L262.751 86.9304H264.744L265.311 97.0243H258.619ZM307.738 102.853L313.538 70.0132H294.601L286.466 116.08L280.759 70.0132H252.71L228.973 119.77H249.334L252.578 111.88H266.105L266.562 119.77H285.814H286.923H330.38L333.367 102.853H307.738ZM241.396 70.0132H222.459L217.701 96.9532C216.923 101.36 214.78 103.422 211.576 103.422C208.372 103.422 206.957 101.36 207.735 96.9532L212.492 70.0132H193.484L188.727 96.9532C185.89 113.017 191.365 121.121 208.45 121.121C225.536 121.121 233.802 113.017 236.639 96.9532L241.396 70.0132ZM172.637 89.2051C168.068 88.0677 162.988 87.0022 163.427 84.5143C163.766 82.595 165.328 81.8131 167.535 81.8131C169.885 81.8131 171.568 83.1637 171.116 85.7227H188.7C191.011 72.6433 180.181 68.6626 169.929 68.6626C161.813 68.6626 146.796 69.4445 143.896 85.8648C142.453 94.0387 146.989 97.3797 158.157 100.65C163.434 102.213 166.491 102.64 166.077 104.986C165.801 106.549 164.369 107.402 161.735 107.402C159.243 107.402 156.299 106.336 156.889 102.995H138.949C137.53 111.027 142.298 121.121 161.021 121.121C173.906 121.121 184.497 117.993 187.007 103.777C189.154 91.6219 177.206 90.3424 172.637 89.2051ZM125.344 70.0132C125.344 70.0132 124.108 77.4777 122.659 85.6772C122.639 85.7355 134.962 88.0656 134.962 88.0656C134.962 88.0656 121.897 90.0183 121.805 90.1128C119.407 103.694 116.557 119.77 116.557 119.77H135.565L144.352 70.0132H125.344ZM102.867 70.0132L89.8062 102.853H88.5247L87.0624 70.0132H65.5625L72.4377 119.77H99.8467L124.295 70.0132H102.867Z" fill="white"/>
<path d="M241.34 220.88L263.748 197.531L278.538 191.59L241.34 220.88ZM228.763 230.479L198.864 223.76L259.673 198.221L228.763 230.479ZM165.328 230.86L194.153 225.162L218.172 230.772L165.328 230.86ZM131.756 198.516L190.478 223.273L153.512 230.523L131.756 198.516ZM98.0067 189.404L127.6 197.332L147.877 226.842L98.0067 189.404ZM288.494 179.151L286.136 185.452L267.168 193.624L277.653 179.16L274.57 179.163L264.889 192.357L265.817 179.17L263.413 179.172L262.047 193.848L227.44 179.202L220.838 179.207L259.732 195.657L196.749 221.974L201.241 179.224L198.829 179.227L194.181 221.915L131.629 195.619L177.454 179.244L170.337 179.25L129.67 193.826L129.503 179.319H127.111L127.042 192.404L116.401 179.296L113.167 179.298L125.402 194.013L93.0551 185.692L91.6811 179.316L88.666 179.319L90.5612 187.338L152.266 233.31L229.743 233.34L288.096 187.245L291.313 179.148L288.494 179.151Z" fill="white"/>
</g>
<defs>
<clipPath id="clip0_17_258">
<rect width="395" height="233" fill="white" transform="translate(0.833984 0.5)"/>
</clipPath>
</defs>
</svg>
