<svg width="139" height="38" viewBox="0 0 139 38" fill="none" xmlns="http://www.w3.org/2000/svg">
<path d="M116.389 25.8082C116.209 26.83 115.545 27.2039 114.447 27.2039H112.851L113.348 24.3876H114.944C116.042 24.3876 116.574 24.7614 116.389 25.8082ZM138.89 24.911C139.699 20.3254 135.905 18.9297 132.314 18.9297C129.664 18.9297 124.53 19.2567 123.019 23.9574C122.903 20.9113 120.744 19.4032 116.472 19.4032H107.569L104.49 36.8488H111.149L111.972 32.1882H113.418L114.84 36.8488H121.973L119.816 30.8424C121.279 29.9035 122.247 28.4615 122.727 26.502C123.074 28.3331 125.014 29.2142 128.19 30.1445C130.038 30.6929 131.109 30.8424 130.964 31.6648C130.868 32.2132 130.366 32.5122 129.443 32.5122C128.57 32.5122 127.539 32.1384 127.745 30.967H121.461C120.963 33.7833 122.633 37.3221 129.193 37.3221C133.707 37.3221 137.417 36.2258 138.296 31.2412C139.048 26.9796 134.863 26.531 133.262 26.1322C131.662 25.7334 129.882 25.3596 130.036 24.4873C130.155 23.8143 130.702 23.5402 131.475 23.5402C132.298 23.5402 132.888 24.0137 132.73 24.911H138.89ZM98.9083 28.126C98.6225 29.7458 97.0926 31.0667 95.5213 31.0667C93.95 31.0667 92.8863 29.7458 93.1721 28.126C93.4579 26.506 94.8132 25.1851 96.5591 25.1851C98.305 25.1851 99.1941 26.506 98.9083 28.126ZM97.6627 18.9297C93.4464 18.9297 89.8387 20.9465 87.8055 24.0768L88.6301 19.4032H71.1721L70.1253 25.3346H75.5375L73.5058 36.8488H80.1399L82.1716 25.3346H87.1024C86.6899 26.205 86.3876 27.1401 86.2138 28.126C85.2727 33.4593 88.5814 37.3221 94.4174 37.3221C100.254 37.3221 104.926 33.4593 105.867 28.126C106.808 22.7925 103.499 18.9297 97.6627 18.9297ZM61.4273 28.8737L62.8747 25.3346H63.573L63.7715 28.8737H61.4273ZM59.3572 19.4032L51.0416 36.8488H58.1745L59.3111 34.0824H64.0496L64.21 36.8488H71.3429L69.1838 19.4032H59.3572ZM30.7044 25.8082C30.5241 26.83 29.8597 27.2039 28.7622 27.2039H27.166L27.6628 24.3876H29.2591C30.3565 24.3876 30.8892 24.7614 30.7044 25.8082ZM43.7042 31.615L43.9022 30.4935H51.2097L52.0452 25.7583H44.7378L44.9355 24.6368H52.9663L53.8899 19.4032H39.2001L36.1767 36.5378L34.1308 30.8424C35.762 29.7956 36.7798 28.126 37.1888 25.8082C37.9453 21.5217 35.85 19.4032 30.787 19.4032H21.8835L20.1359 29.3071L13.2608 29.2974C12.7446 30.2442 11.9554 31.0418 10.5088 31.0418C8.83804 31.0418 7.96037 29.7956 8.25517 28.126C8.54972 26.4562 9.86686 25.21 11.5379 25.21C12.9845 25.21 13.4923 26.0076 13.6744 26.9546H20.3334C20.7978 22.3439 17.6841 18.9297 12.4465 18.9297C6.61056 18.9297 1.93859 22.7925 0.997568 28.126C0.0565414 33.4593 3.36522 37.3221 9.20119 37.3221C13.5763 37.3221 17.8019 34.9462 19.753 31.4764L18.8052 36.8488H25.4643L26.2866 32.1882H27.7332L29.1553 36.8488H36.1219H36.2882H50.8117L51.735 31.615H43.7042Z" fill="black"/>
<path d="M90.8678 10.4323L92.3154 6.89325H93.0135L93.2123 10.4323H90.8678ZM108.076 12.476L110.107 0.961819H103.473L100.623 17.1137L98.6243 0.961819H88.798L80.4821 18.4074H87.615L88.7516 15.641H93.4904L93.6505 18.4074H100.395H100.783H116.008L117.054 12.476H108.076ZM84.8343 0.961819H78.2003L76.5334 10.4074C76.2608 11.9526 75.5099 12.6754 74.3875 12.6754C73.2652 12.6754 72.7693 11.9526 73.0419 10.4074L74.7085 0.961819H68.0495L66.3829 10.4074C65.389 16.0397 67.307 18.881 73.2926 18.881C79.2782 18.881 82.1739 16.0397 83.1678 10.4074L84.8343 0.961819ZM60.7462 7.69078C59.1458 7.29201 57.366 6.91842 57.5199 6.04611C57.6386 5.37319 58.1858 5.09904 58.959 5.09904C59.782 5.09904 60.3719 5.57258 60.2135 6.4698H66.3737C67.183 1.88397 63.389 0.488281 59.7975 0.488281C56.9542 0.488281 51.6934 0.762434 50.6775 6.51965C50.172 9.38555 51.761 10.5569 55.6737 11.7034C57.5224 12.2517 58.5933 12.4012 58.4482 13.2237C58.3514 13.772 57.8498 14.0711 56.927 14.0711C56.0541 14.0711 55.0228 13.6972 55.2293 12.5258H48.9444C48.4475 15.3419 50.1176 18.881 56.6769 18.881C61.1909 18.881 64.9012 17.7844 65.7806 12.8C66.5326 8.53816 62.347 8.08955 60.7462 7.69078ZM44.1784 0.961819C44.1784 0.961819 43.7451 3.57898 43.2378 6.45385C43.2306 6.47429 47.5477 7.29127 47.5477 7.29127C47.5477 7.29127 42.9707 7.9759 42.9386 8.00905C42.0983 12.7708 41.1001 18.4074 41.1001 18.4074H47.7592L50.8374 0.961819H44.1784ZM36.304 0.961819L31.7285 12.476H31.2796L30.7673 0.961819H23.2354L25.6439 18.4074H35.246L43.811 0.961819H36.304Z" fill="black"/>
</svg>
